# xmcd
#
# Track frame offsets:
#   150
#   3133
#   14261
#   24860
#   39975
#   52590
#   60994
#   74065
#   91621
#   102747
#   112188
#   124816
#   130895
#   137828
#   147488
#   152873
#   161268
#   167039
#   176098
#   186129
#   196943
#   206078
#   209661
#   221380
#   235237
#   241847
#   251431
#   259955
#   273028
#   282149
#   287519
#   296611
#   305501
#   314476
#   322716
#   336095
#   346897
#
# Disc length: 4736 seconds
#
# Revision: 0
# Processed by: cddbd v1.5.2PL0 Copyright (c) Steve Scherf et al.
# Submitted via: uFREEDB ActiveX Control 1.5
#
DISCID=1a127e25
DTITLE=lauzio - lauzio
DYEAR=1900
DGENRE=Dance
TTITLE0=1
TTITLE1=2
TTITLE2=3
TTITLE3=4
TTITLE4=5
TTITLE5=6
TTITLE6=7
TTITLE7=8
TTITLE8=9
TTITLE9=10
TTITLE10=11
TTITLE11=12
TTITLE12=13
TTITLE13=14
TTITLE14=15
TTITLE15=16
TTITLE16=17
TTITLE17=18
TTITLE18=19
TTITLE19=20
TTITLE20=21
TTITLE21=22
TTITLE22=24
TTITLE23=25
TTITLE24=26
TTITLE25=28
TTITLE26=29
TTITLE27=30
TTITLE28=31
TTITLE29=32
TTITLE30=33
TTITLE31=34
TTITLE32=35
TTITLE33=36
TTITLE34=39
TTITLE35=39
TTITLE36=40
EXTD=
EXTT0=
EXTT1=
EXTT2=
EXTT3=
EXTT4=
EXTT5=
EXTT6=
EXTT7=
EXTT8=
EXTT9=
EXTT10=
EXTT11=
EXTT12=
EXTT13=
EXTT14=
EXTT15=
EXTT16=
EXTT17=
EXTT18=
EXTT19=
EXTT20=
EXTT21=
EXTT22=
EXTT23=
EXTT24=
EXTT25=
EXTT26=
EXTT27=
EXTT28=
EXTT29=
EXTT30=
EXTT31=
EXTT32=
EXTT33=
EXTT34=
EXTT35=
EXTT36=
PLAYORDER=
